<svg width="25" height="24" viewBox="0 0 25 24" fill="none" xmlns="http://www.w3.org/2000/svg">
<path d="M7.0603 21.75C6.86139 21.75 6.67063 21.671 6.52997 21.5303C6.38932 21.3897 6.3103 21.1989 6.3103 21V18H5.1853C4.2905 17.999 3.43263 17.6431 2.79991 17.0104C2.16719 16.3777 1.8113 15.5198 1.8103 14.625V5.625C1.8113 4.7302 2.16719 3.87233 2.79991 3.23961C3.43263 2.60689 4.2905 2.25099 5.1853 2.25H19.4353C20.3301 2.25099 21.188 2.60689 21.8207 3.23961C22.4534 3.87233 22.8093 4.7302 22.8103 5.625V14.625C22.8093 15.5198 22.4534 16.3777 21.8207 17.0104C21.188 17.6431 20.3301 17.999 19.4353 18H11.8294L7.54077 21.5761C7.40581 21.6883 7.23584 21.7499 7.0603 21.75V21.75Z" fill="#C4C4C4"/>
</svg>
