<svg width="77" height="77" viewBox="0 0 77 77" fill="none" xmlns="http://www.w3.org/2000/svg">
<g filter="url(#filter0_b)">
<circle cx="38.7589" cy="38.4982" r="34.0748" fill="#1BC5EF"/>
</g>
<path fill-rule="evenodd" clip-rule="evenodd" d="M43.3779 41.6775L48.8097 47.1093C49.0006 47.3004 49.1078 47.5594 49.1077 47.8295C49.1076 48.0996 49.0002 48.3586 48.8092 48.5495C48.6181 48.7405 48.3591 48.8477 48.089 48.8476C47.8189 48.8475 47.5599 48.7401 47.3689 48.549L41.9372 43.1173C40.3134 44.3749 38.2715 44.9668 36.2269 44.7724C34.1822 44.578 32.2884 43.612 30.9308 42.0709C29.5731 40.5298 28.8535 38.5293 28.9183 36.4765C28.9832 34.4237 29.8277 32.4727 31.28 31.0204C32.7323 29.5681 34.6833 28.7236 36.7361 28.6587C38.789 28.5938 40.7894 29.3134 42.3305 30.6711C43.8716 32.0288 44.8376 33.9226 45.032 35.9672C45.2264 38.0119 44.6346 40.0538 43.3769 41.6775H43.3779ZM36.992 42.7891C38.5987 42.7891 40.1395 42.1509 41.2755 41.0149C42.4116 39.8788 43.0498 38.338 43.0498 36.7314C43.0498 35.1248 42.4116 33.584 41.2755 32.4479C40.1395 31.3119 38.5987 30.6737 36.992 30.6737C35.3854 30.6737 33.8446 31.3119 32.7086 32.4479C31.5725 33.584 30.9343 35.1248 30.9343 36.7314C30.9343 38.338 31.5725 39.8788 32.7086 41.0149C33.8446 42.1509 35.3854 42.7891 36.992 42.7891V42.7891Z" fill="white"/>
<defs>
<filter id="filter0_b" x="-78.6098" y="-78.8705" width="234.737" height="234.737" filterUnits="userSpaceOnUse" color-interpolation-filters="sRGB">
<feFlood flood-opacity="0" result="BackgroundImageFix"/>
<feGaussianBlur in="BackgroundImage" stdDeviation="41.647"/>
<feComposite in2="SourceAlpha" operator="in" result="effect1_backgroundBlur"/>
<feBlend mode="normal" in="SourceGraphic" in2="effect1_backgroundBlur" result="shape"/>
</filter>
</defs>
</svg>
