<svg width="70" height="70" viewBox="0 0 70 70" fill="none" xmlns="http://www.w3.org/2000/svg">
<circle cx="35" cy="35" r="34" stroke="#C4C4C4" stroke-width="2"/>
<path d="M29.3334 44.9167H25.0834V30.75H29.3334V44.9167ZM44.9167 44.9167H40.6667V37.3488C40.6667 35.3768 39.964 34.3951 38.5715 34.3951C37.4679 34.3951 36.768 34.9448 36.4167 36.0455V44.9167H32.1667C32.1667 44.9167 32.2234 32.1667 32.1667 30.75H35.5214L35.7806 33.5833H35.8685C36.7397 32.1667 38.1323 31.2062 40.042 31.2062C41.494 31.2062 42.6685 31.6099 43.5652 32.6243C44.4676 33.64 44.9167 35.0028 44.9167 36.9167V44.9167Z" fill="white"/>
<path d="M27.2083 29.3334C28.421 29.3334 29.4041 28.382 29.4041 27.2084C29.4041 26.0348 28.421 25.0834 27.2083 25.0834C25.9956 25.0834 25.0125 26.0348 25.0125 27.2084C25.0125 28.382 25.9956 29.3334 27.2083 29.3334Z" fill="white"/>
</svg>
