<svg width="70" height="70" viewBox="0 0 70 70" fill="none" xmlns="http://www.w3.org/2000/svg">
<circle cx="35" cy="35" r="34" stroke="#C4C4C4" stroke-width="2"/>
<path d="M47.6749 29.7654C47.6606 28.6924 47.4597 27.6301 47.0813 26.626C46.7531 25.7791 46.2519 25.0099 45.6096 24.3676C44.9674 23.7253 44.1982 23.2241 43.3512 22.8959C42.36 22.5239 41.3129 22.3227 40.2544 22.3009C38.8916 22.24 38.4595 22.223 35 22.223C31.5405 22.223 31.0971 22.223 29.7441 22.3009C28.6861 22.3228 27.6395 22.524 26.6487 22.8959C25.8016 23.2239 25.0323 23.725 24.39 24.3673C23.7477 25.0096 23.2466 25.7789 22.9186 26.626C22.5458 27.6165 22.3451 28.6633 22.3251 29.7214C22.2641 31.0857 22.2457 31.5178 22.2457 34.9773C22.2457 38.4368 22.2457 38.8788 22.3251 40.2331C22.3463 41.2928 22.5461 42.3383 22.9186 43.3314C23.2471 44.1782 23.7487 44.9472 24.3912 45.5892C25.0337 46.2312 25.8031 46.7322 26.6501 47.06C27.6382 47.4471 28.685 47.6626 29.7456 47.6975C31.1098 47.7584 31.5419 47.7769 35.0014 47.7769C38.4609 47.7769 38.9043 47.7769 40.2572 47.6975C41.3157 47.6767 42.3629 47.476 43.3541 47.1039C44.2008 46.7754 44.9698 46.274 45.612 45.6318C46.2542 44.9896 46.7556 44.2206 47.0841 43.3739C47.4567 42.3822 47.6565 41.3367 47.6777 40.2756C47.7386 38.9128 47.7571 38.4807 47.7571 35.0198C47.7542 31.5603 47.7542 31.1211 47.6749 29.7654ZM34.9915 41.5194C31.3733 41.5194 28.4422 38.5884 28.4422 34.9702C28.4422 31.352 31.3733 28.4209 34.9915 28.4209C36.7284 28.4209 38.3943 29.1109 39.6225 30.3392C40.8507 31.5674 41.5407 33.2332 41.5407 34.9702C41.5407 36.7072 40.8507 38.373 39.6225 39.6012C38.3943 40.8294 36.7284 41.5194 34.9915 41.5194ZM41.8014 29.7059C40.9556 29.7059 40.2742 29.023 40.2742 28.1787C40.2742 27.9782 40.3137 27.7797 40.3904 27.5945C40.4671 27.4093 40.5796 27.2411 40.7213 27.0993C40.8631 26.9576 41.0313 26.8451 41.2165 26.7684C41.4017 26.6917 41.6002 26.6522 41.8007 26.6522C42.0011 26.6522 42.1996 26.6917 42.3848 26.7684C42.57 26.8451 42.7383 26.9576 42.8801 27.0993C43.0218 27.2411 43.1342 27.4093 43.211 27.5945C43.2877 27.7797 43.3271 27.9782 43.3271 28.1787C43.3271 29.023 42.6443 29.7059 41.8014 29.7059Z" fill="white"/>
<path d="M34.9914 39.2244C37.341 39.2244 39.2457 37.3198 39.2457 34.9702C39.2457 32.6206 37.341 30.7159 34.9914 30.7159C32.6419 30.7159 30.7372 32.6206 30.7372 34.9702C30.7372 37.3198 32.6419 39.2244 34.9914 39.2244Z" fill="white"/>
</svg>
