<svg width="82" height="82" viewBox="0 0 82 82" fill="none" xmlns="http://www.w3.org/2000/svg">
<circle cx="41.0681" cy="41.3809" r="39.3753" stroke="#C4C4C4" stroke-width="2.01925"/>
<path d="M47.1259 37.3424C48.7987 37.3424 50.1548 35.9863 50.1548 34.3135C50.1548 32.6407 48.7987 31.2847 47.1259 31.2847C45.4531 31.2847 44.097 32.6407 44.097 34.3135C44.097 35.9863 45.4531 37.3424 47.1259 37.3424Z" stroke="white" stroke-width="2.01925" stroke-linecap="round" stroke-linejoin="round"/>
<path d="M35.0104 44.4098C36.6832 44.4098 38.0393 43.0537 38.0393 41.3809C38.0393 39.7081 36.6832 38.3521 35.0104 38.3521C33.3376 38.3521 31.9816 39.7081 31.9816 41.3809C31.9816 43.0537 33.3376 44.4098 35.0104 44.4098Z" stroke="white" stroke-width="2.01925" stroke-linecap="round" stroke-linejoin="round"/>
<path d="M47.1259 51.4772C48.7987 51.4772 50.1548 50.1211 50.1548 48.4483C50.1548 46.7755 48.7987 45.4194 47.1259 45.4194C45.4531 45.4194 44.097 46.7755 44.097 48.4483C44.097 50.1211 45.4531 51.4772 47.1259 51.4772Z" stroke="white" stroke-width="2.01925" stroke-linecap="round" stroke-linejoin="round"/>
<path d="M37.6254 42.9054L44.5211 46.9237" stroke="white" stroke-width="2.01925" stroke-linecap="round" stroke-linejoin="round"/>
<path d="M44.511 35.8381L37.6254 39.8564" stroke="white" stroke-width="2.01925" stroke-linecap="round" stroke-linejoin="round"/>
</svg>
