<svg width="70" height="70" viewBox="0 0 70 70" fill="none" xmlns="http://www.w3.org/2000/svg">
<circle cx="35" cy="35" r="34" stroke="#C4C4C4" stroke-width="2"/>
<path d="M42.3125 38.1875H40.75V37.25C40.75 36.75 41 36.5 41.5 36.5H41.5625C42.0625 36.5 42.3125 36.75 42.3125 37.25V38.1875ZM36.375 36.1875C35.875 36.1875 35.625 36.3958 35.625 36.8125V41.25C35.625 41.6667 35.875 41.875 36.375 41.875C36.875 41.875 37.125 41.6667 37.125 41.25V36.8125C37.125 36.3958 36.875 36.1875 36.375 36.1875ZM46 33.6875V42.1875C46 43.2292 45.6146 44.1042 44.8438 44.8125C44.0729 45.5208 43.1458 45.875 42.0625 45.875H25.9375C24.8542 45.875 23.9271 45.5208 23.1562 44.8125C22.3854 44.1042 22 43.2292 22 42.1875V33.6875C22 32.6875 22.3854 31.8229 23.1562 31.0938C23.9271 30.3646 24.8542 30 25.9375 30H42.0625C43.1458 30 44.0729 30.3646 44.8438 31.0938C45.6146 31.8229 46 32.6875 46 33.6875ZM27 43.125V34.1875H29V32.875L23.6875 32.8125V34.125H25.3125V43.125H27ZM33 35.5H31.3125V41.4375C31.2292 41.6458 31.0833 41.7812 30.875 41.8438C30.6667 41.9062 30.5 41.7917 30.375 41.5V40.3125L30.3125 35.5H28.6875V41.75C28.7708 42.4583 28.9167 42.875 29.125 43C29.5 43.25 29.9688 43.2604 30.5312 43.0312C31.0938 42.8021 31.4792 42.5 31.6875 42.125V43.125H33V35.5ZM38.3125 41V37C38.3125 36.2083 38.0625 35.6667 37.5625 35.375C37.0625 35.0833 36.4375 35.2292 35.6875 35.8125V32.875H34V43.0625H35.375L35.5 42.375C36.375 43.125 37.0729 43.3333 37.5938 43C38.1146 42.6667 38.3542 42 38.3125 41ZM43.5625 40.4375H42.3125V41.3125C42.3125 41.7708 42.0833 42 41.625 42H41.375C40.9167 42 40.6875 41.7708 40.6875 41.3125V39.5H43.5625V38.4375C43.5625 37.3542 43.5417 36.6667 43.5 36.375C43.375 35.7083 42.9271 35.2917 42.1562 35.125C41.3854 34.9583 40.75 35.0625 40.25 35.4375C39.9167 35.7292 39.6875 36.0417 39.5625 36.375C39.4375 36.7917 39.375 37.3542 39.375 38.0625V40.4375C39.375 41.9792 39.9583 42.875 41.125 43.125C42.125 43.3333 42.8542 43 43.3125 42.125C43.6042 41.6667 43.6875 41.1042 43.5625 40.4375ZM37.125 27.5625C37.2083 27.7708 37.3542 27.9375 37.5625 28.0625C37.7292 28.1875 37.9583 28.25 38.25 28.25C38.5 28.25 38.7083 28.1875 38.875 28.0625C39.0417 27.9375 39.1875 27.75 39.3125 27.5V28.125H41.1875V20.1875H39.6875V26.375C39.6875 26.7917 39.4792 27 39.0625 27C38.6875 27 38.5 26.7917 38.5 26.375V20.1875H36.9375V25.5625C36.9375 26.3125 36.9583 26.7708 37 26.9375C37 27.1042 37.0417 27.3125 37.125 27.5625ZM31.5 23.125C31.5 22.375 31.5625 21.7708 31.6875 21.3125C31.8125 20.9375 32.0417 20.6042 32.375 20.3125C32.7083 20.0625 33.125 19.9375 33.625 19.9375C34.0833 19.9375 34.4583 20.0208 34.75 20.1875C35.0417 20.3125 35.2708 20.5208 35.4375 20.8125C35.6042 21.0208 35.7292 21.2917 35.8125 21.625C35.8542 21.8333 35.875 22.2708 35.875 22.9375V24.9375C35.875 25.7708 35.8542 26.3125 35.8125 26.5625C35.7708 26.8542 35.6458 27.1667 35.4375 27.5C35.3125 27.7083 35.0833 27.9375 34.75 28.1875C34.4167 28.3125 34.0833 28.375 33.75 28.375C33.3333 28.375 32.9583 28.3125 32.625 28.1875C32.3333 28.0625 32.1042 27.875 31.9375 27.625C31.7708 27.2917 31.6667 27 31.625 26.75C31.5417 26.3333 31.5 25.8125 31.5 25.1875V23.125ZM32.9375 26.25C32.9375 26.4583 33.0104 26.6458 33.1562 26.8125C33.3021 26.9792 33.4792 27.0625 33.6875 27.0625C34.1875 27.0625 34.4375 26.7917 34.4375 26.25V22.0625C34.4375 21.5208 34.1875 21.25 33.6875 21.25C33.1875 21.25 32.9375 21.5208 32.9375 22.0625V26.25ZM27.8125 28.375H29.5625V22.3125L31.625 17.125H29.75L28.625 21L27.5 17.125H25.625L27.8125 22.3125V28.375Z" fill="white"/>
</svg>
