<svg width="25" height="24" viewBox="0 0 25 24" fill="none" xmlns="http://www.w3.org/2000/svg">
<g clip-path="url(#clip0)">
<path d="M5.45249 1.33594C3.73687 1.33594 2.87905 2.19375 2.87905 3.05156C2.87905 3.90937 3.73687 4.76719 4.59468 4.76719C2.87905 4.76719 2.02124 5.625 2.02124 6.48281C2.02124 7.34063 2.87905 8.19844 3.73687 8.19844C2.02124 8.19844 1.16343 9.05625 1.16343 9.91406C1.16343 10.7719 2.02593 11.625 2.88374 11.625C1.16812 11.625 0.310303 12.4781 0.310303 13.3359C0.310303 14.1937 1.16812 15.0516 2.02593 15.0516H8.88374C8.45718 16.7672 8.02593 18.4781 8.02593 19.3359C8.02593 21.0516 8.88374 22.7625 9.3103 23.1937C9.31968 23.2031 9.73686 23.6203 10.5947 23.6203C11.8791 23.6203 11.8791 22.3359 11.8791 22.3359C11.8791 22.3125 12.3056 20.1937 12.3056 19.3359C12.3056 18.4781 14.0212 15.0516 14.8791 14.1937L15.7369 13.7672V1.76719L14.8791 1.34063H5.45249V1.33594ZM17.3681 0.5625L16.5947 2.19375V13.3359L17.4525 14.1937H24.1931C24.2634 13.6312 24.3103 13.0594 24.3103 12.4781C24.3103 7.37344 21.5119 2.925 17.3681 0.5625Z" fill="#C4C4C4"/>
</g>
<defs>
<clipPath id="clip0">
<rect x="0.310303" width="24" height="24" fill="white"/>
</clipPath>
</defs>
</svg>
