<svg width="25" height="24" viewBox="0 0 25 24" fill="none" xmlns="http://www.w3.org/2000/svg">
<g clip-path="url(#clip0)">
<path d="M0.42749 9.80156C0.357178 10.3641 0.310303 10.9359 0.310303 11.5172C0.310303 16.6266 3.10874 21.075 7.25249 23.4328L8.02593 21.8016V10.6594L7.16812 9.80156H0.42749ZM24.3103 10.6594C24.3103 9.80156 23.4525 8.94375 22.5947 8.94375H15.7369C16.1634 7.22813 16.5947 5.51719 16.5947 4.65938C16.5947 2.94375 15.7369 1.23281 15.3103 0.801563C15.3009 0.792188 14.8837 0.375 14.0259 0.375C12.7416 0.375 12.7416 1.65938 12.7416 1.65938C12.7416 1.68281 12.315 3.80156 12.315 4.65938C12.315 5.51719 10.5994 8.94375 9.74155 9.80156L8.88374 10.2281V22.2281L9.74155 22.6547H19.1681C20.8837 22.6547 21.7416 21.7969 21.7416 20.9391C21.7416 20.0813 20.8837 19.2234 20.0259 19.2234C21.7416 19.2234 22.5994 18.3656 22.5994 17.5078C22.5994 16.65 21.7416 15.7922 20.8837 15.7922C22.5994 15.7922 23.4572 14.9344 23.4572 14.0766C23.4572 13.2187 22.5994 12.3609 21.7416 12.3609C23.4525 12.375 24.3103 11.5172 24.3103 10.6594V10.6594Z" fill="#C4C4C4"/>
</g>
<defs>
<clipPath id="clip0">
<rect x="0.310303" width="24" height="24" fill="white"/>
</clipPath>
</defs>
</svg>
